# xmcd
#
# Track frame offsets: 
#        150
#        18882
#        39530
#        56097
#        72228
#        86905
#        102094
#        115805
#        131555
#        151230
#        169576
#        182616
#        198225
#        212503
#
# Disc length: 3087 seconds
#
# Revision: 0
# Processed by: cddbd v1.5.2PL0 Copyright (c) Steve Scherf et al.
# Submitted via: ExactAudioCopy v1.1
#
DISCID=b50c0d0e
DTITLE=Johan Verminnen - En Daarna Ga Ik Vissen
DYEAR=2019
DGENRE=Chanson
TTITLE0=Alles Begint Van Voor Af Aan
TTITLE1=Een Eiland Vol Eenzaamheid
TTITLE2=We Komen En We Gaan
TTITLE3=Land Van... Een Soort Volkslied
TTITLE4=Al Je Woorden Gaan Op Reis
TTITLE5=Tussen Wal En Schip
TTITLE6=Ik Weet Het Niet
TTITLE7=De Tijd
TTITLE8=Spijt, Spijt, Spijt
TTITLE9=Mayday
TTITLE10=Gewoon Een Lentedag
TTITLE11=En Daarna Ga Ik Vissen
TTITLE12=Blijf Bij Mij
TTITLE13=De Piano Die Zwijgt
EXTD=
EXTT0=
EXTT1=
EXTT2=
EXTT3=
EXTT4=
EXTT5=
EXTT6=
EXTT7=
EXTT8=
EXTT9=
EXTT10=
EXTT11=
EXTT12=
EXTT13=
PLAYORDER=
